<svg id="Layer_1" data-name="Layer 1" xmlns="http://www.w3.org/2000/svg" viewBox="0 0 37.51 34.25"><defs><style>.cls-1{fill:#b794f4;fill-rule:evenodd;}</style></defs><title>react-logo-sm</title><path class="cls-1" d="M289.86,187.87a5.69,5.69,0,0,0-2,.31,13.16,13.16,0,0,0-4.17,2.44c-.56.46-1.13,1-1.7,1.53-.56-.54-1.11-1.05-1.66-1.49a13.24,13.24,0,0,0-4.16-2.44,4.09,4.09,0,0,0-5.77,3.33,13.46,13.46,0,0,0,0,4.82c.1.63.25,1.3.41,2-.62.18-1.22.38-1.78.6a12.89,12.89,0,0,0-4.1,2.39,4.14,4.14,0,0,0,0,6.66,12.89,12.89,0,0,0,4.1,2.39c.6.23,1.25.44,1.91.64a25.41,25.41,0,0,0-.56,2.6,13.26,13.26,0,0,0,0,4.82,4.11,4.11,0,0,0,5.8,3.35,13.24,13.24,0,0,0,4.16-2.44c.56-.45,1.12-1,1.69-1.52.56.55,1.13,1.07,1.69,1.53a13.63,13.63,0,0,0,4.16,2.44,4.11,4.11,0,0,0,5.77-3.34,13.46,13.46,0,0,0,0-4.82c-.14-.83-.33-1.7-.57-2.6.69-.21,1.35-.42,2-.66a12.89,12.89,0,0,0,4.1-2.39,4.14,4.14,0,0,0,0-6.66,12.89,12.89,0,0,0-4.1-2.39c-.57-.22-1.18-.42-1.81-.61.17-.68.31-1.35.42-2a13.51,13.51,0,0,0,0-4.83,4.59,4.59,0,0,0-2-3.16A3.84,3.84,0,0,0,289.86,187.87Zm-.07,1.66a2.21,2.21,0,0,1,1,.27,2.93,2.93,0,0,1,1.24,2.07,12,12,0,0,1-.05,4.22c-.09.57-.23,1.19-.38,1.81a37.3,37.3,0,0,0-5.44-.87,38.48,38.48,0,0,0-3-3.68q.81-.79,1.59-1.44a12.17,12.17,0,0,1,3.63-2.15A4.14,4.14,0,0,1,289.79,189.53Zm-15.47,0a4.27,4.27,0,0,1,1.39.24,12,12,0,0,1,3.63,2.15c.51.41,1,.89,1.55,1.4a39.22,39.22,0,0,0-3,3.72,37,37,0,0,0-5.42.88c-.15-.63-.29-1.23-.38-1.81a12,12,0,0,1-.05-4.22,3,3,0,0,1,1.25-2.08A2.29,2.29,0,0,1,274.32,189.53Zm7.74,5c.66.72,1.32,1.51,2,2.36-.64,0-1.3,0-2,0s-1.35,0-2,0C280.73,196,281.39,195.24,282.06,194.52Zm0,4c1.1,0,2.18,0,3.23.12.73,1,1.43,2.14,2.11,3.31s1.12,2,1.61,3.05c-.49,1-1,2.07-1.63,3.1s-1.08,1.79-1.64,2.62c-1.19.1-2.42.16-3.68.16s-2.56-.06-3.77-.16c-.55-.83-1.09-1.68-1.61-2.58s-1.14-2.08-1.63-3.1c.49-1,1-2.07,1.64-3.11s1.37-2.25,2.09-3.29C279.86,198.53,281,198.49,282.08,198.49Zm5.33.32a35.08,35.08,0,0,1,3.78.68,36.35,36.35,0,0,1-1.3,3.57c-.33-.65-.68-1.3-1.06-2S287.9,199.55,287.41,198.81Zm-10.76,0c-.47.72-.94,1.46-1.38,2.24s-.74,1.32-1.09,2a36.53,36.53,0,0,1-1.28-3.54A34.94,34.94,0,0,1,276.65,198.83Zm16.15,1.1c.58.17,1.14.35,1.65.55a11.59,11.59,0,0,1,3.59,2.07,2.54,2.54,0,0,1,0,4.24,11.39,11.39,0,0,1-3.59,2.06c-.57.23-1.19.43-1.84.62a40.29,40.29,0,0,0-1.76-4.46A39.15,39.15,0,0,0,292.8,199.93Zm-21.48,0a38.48,38.48,0,0,0,1.93,5,41.48,41.48,0,0,0-1.77,4.48,18.53,18.53,0,0,1-1.78-.6,11.39,11.39,0,0,1-3.59-2.06,2.54,2.54,0,0,1,0-4.24,11.59,11.59,0,0,1,3.59-2.07C270.2,200.29,270.75,200.11,271.32,199.93Zm10.76,1a4.08,4.08,0,1,0,4.07,4.08A4.09,4.09,0,0,0,282.08,200.92Zm-7.88,6c.35.66.7,1.32,1.09,2s.61,1,.92,1.53c-1.1-.15-2.14-.35-3.11-.57C273.41,208.92,273.78,207.94,274.2,206.93Zm15.72,0c.42,1,.79,2,1.11,2.95-1,.23-2,.42-3.13.57.32-.5.63-1,.94-1.54S289.57,207.59,289.92,206.93Zm-17.29,4.53a36.22,36.22,0,0,0,4.77.79,39.84,39.84,0,0,0,3.49,4.39c-.53.52-1.05,1-1.57,1.43a12.05,12.05,0,0,1-3.63,2.15,2.49,2.49,0,0,1-3.65-2.11,12,12,0,0,1,0-4.22A23.5,23.5,0,0,1,272.63,211.46Zm18.87,0c.23.86.41,1.68.54,2.45a12,12,0,0,1,0,4.22,2.5,2.5,0,0,1-3.67,2.13,12.11,12.11,0,0,1-3.63-2.16c-.52-.42-1-.91-1.59-1.43a39.29,39.29,0,0,0,3.53-4.42A36.66,36.66,0,0,0,291.5,211.46Zm-12,1c.84,0,1.69.07,2.56.07s1.66,0,2.47-.07a36.88,36.88,0,0,1-2.52,3.05A38.57,38.57,0,0,1,279.52,212.42Z" transform="translate(-263.32 -187.87)"/></svg>